<svg width="25" height="25" viewBox="0 0 25 25" fill="none" xmlns="http://www.w3.org/2000/svg">
<g clip-path="url(#clip0_97_649)">
<path d="M20.525 16.075L21.925 13.8L21.225 9.89998L21.1 8.62498L23.275 5.99998L24.9 2.92498C25.125 2.52498 24.9 2.09998 24.475 2.09998H21.475L19.925 3.94998L17.575 2.09998H13.7L11.625 3.67498L9.825 2.09998H5.925L5.25 5.97498L6.425 7.47498L4.55 9.89998L3.875 13.8L7.075 17.7H10.95L12.225 16.55L14.825 17.7H18.7L20.5 16.275L20.525 16.075Z" fill="white"/>
<path d="M19.425 13.7749L18.75 17.6749H21.75C22.175 17.6749 22.55 17.2499 22.475 16.8499L21.925 13.7749H19.425Z" fill="#687696"/>
<path d="M16.2249 9.875H20.0999L19.4249 13.775H15.5249L16.2249 9.875Z" fill="#687696"/>
<path d="M20.7746 5.97498L20.0996 9.87498H21.2246L23.2996 5.97498H20.7746Z" fill="#687696"/>
<path d="M17.5749 2.07495H21.4749L20.7749 5.97495H16.8999L17.5749 2.07495Z" fill="#687696"/>
<path d="M11.6497 13.7749H15.5247L14.8497 17.6749H10.9497L11.6497 13.7749Z" fill="#687696"/>
<path d="M8.45 9.875H12.325L11.65 13.775H7.75L8.45 9.875Z" fill="#687696"/>
<path d="M13.0247 5.97498H16.8997L16.2247 9.87498H12.3247L13.0247 5.97498Z" fill="#687696"/>
<path d="M9.825 2.07495H13.7L13.025 5.97495H9.125L9.825 2.07495Z" fill="#687696"/>
<path d="M3.8748 13.7749H7.7498L7.0748 17.6749H3.1748L3.8748 13.7749Z" fill="#687696"/>
<path d="M5.2498 5.97498H9.1248L8.4498 9.87498H4.5498L5.2498 5.97498Z" fill="#687696"/>
<path d="M0.975227 24.75C0.325227 24.75 -0.0997725 24.225 0.0252275 23.575L4.00023 0.925C4.10023 0.275 4.72523 -0.25 5.35023 -0.25C6.00023 -0.25 6.42523 0.275 6.30023 0.925L2.32523 23.575C2.22523 24.225 1.60023 24.75 0.975227 24.75Z" fill="#D3853A"/>
</g>
<defs>
<clipPath id="clip0_97_649">
<rect width="25" height="25" fill="white"/>
</clipPath>
</defs>
</svg>
