<svg width="25" height="25" viewBox="0 0 25 25" fill="none" xmlns="http://www.w3.org/2000/svg">
<g clip-path="url(#clip0_97_648)">
<path d="M0.0652037 10.68L3.0952 22.8275C3.3802 23.9725 4.5402 24.6675 5.6852 24.3825L12.2502 22.745C13.3952 22.46 14.0902 21.3 13.8052 20.155L10.7777 8.01001C10.4927 6.86501 9.3327 6.17001 8.1877 6.45501L1.6202 8.09251C0.475204 8.37751 -0.222296 9.53501 0.0652037 10.68Z" fill="#D6E1E9"/>
<path d="M5.16247 22.7726C4.98997 22.7726 4.77747 22.6626 4.71747 22.4226L1.68997 10.2751C1.62997 10.0301 1.77997 9.77756 2.02497 9.71756L8.59247 8.08006C8.62997 8.07006 8.66747 8.06506 8.70497 8.06506C8.87747 8.06506 9.08997 8.17506 9.14997 8.41506L12.18 20.5626C12.2175 20.7151 12.1725 20.8376 12.1275 20.9101C12.0825 20.9851 11.9975 21.0801 11.845 21.1201L5.27497 22.7576C5.23747 22.7676 5.19997 22.7726 5.16247 22.7726Z" fill="#00BDC2"/>
<path d="M14.2227 8.00997L11.1952 20.1575C10.9102 21.3025 11.6052 22.46 12.7502 22.7475L19.3177 24.385C20.4627 24.67 21.6202 23.975 21.9077 22.83L24.9377 10.6825C25.2227 9.53747 24.5277 8.37997 23.3827 8.09247L16.8152 6.45497C15.6677 6.16747 14.5102 6.86497 14.2227 8.00997Z" fill="#E7EEF2"/>
<path d="M19.8376 22.7724C19.8001 22.7724 19.7626 22.7674 19.7251 22.7574L13.1576 21.1199C13.0051 21.0824 12.9201 20.9849 12.8751 20.9099C12.8301 20.8349 12.7851 20.7149 12.8226 20.5624L15.8501 8.41494C15.9101 8.17494 16.1226 8.06494 16.2951 8.06494C16.3326 8.06494 16.3701 8.06994 16.4076 8.07994L22.9751 9.71744C23.1276 9.75494 23.2126 9.85244 23.2576 9.92744C23.3026 10.0024 23.3476 10.1224 23.3101 10.2749L20.2826 22.4224C20.2226 22.6624 20.0101 22.7724 19.8376 22.7724Z" fill="#FFDE46"/>
<path opacity="0.24" d="M16.2425 1.51001H8.75746C7.45246 1.51001 6.39746 2.56751 6.39746 3.87001V17.71C6.39746 19.015 7.45496 20.07 8.75746 20.07H16.24C17.545 20.07 18.6 19.0125 18.6 17.71V3.87001C18.6025 2.56751 17.545 1.51001 16.2425 1.51001Z" fill="#5A009D"/>
<path d="M6.39746 2.91249V16.7525C6.39746 18.0575 7.45496 19.1125 8.75746 19.1125H16.24C17.545 19.1125 18.6 18.055 18.6 16.7525V2.91249C18.6 1.60749 17.5425 0.55249 16.24 0.55249H8.75746C7.45496 0.55249 6.39746 1.60999 6.39746 2.91249Z" fill="white"/>
<path d="M6.39746 2.91249V16.7525C6.39746 18.0575 7.45496 19.1125 8.75746 19.1125H16.24C17.545 19.1125 18.6 18.055 18.6 16.7525V2.91249C18.6 1.60749 17.5425 0.55249 16.24 0.55249H8.75746C7.45496 0.55249 6.39746 1.60999 6.39746 2.91249Z" fill="white"/>
<path d="M8.75727 17.44C8.37977 17.44 8.07227 17.1325 8.07227 16.755V2.91254C8.07227 2.53504 8.37977 2.22754 8.75727 2.22754H16.2398C16.6173 2.22754 16.9248 2.53504 16.9248 2.91254V16.7525C16.9248 17.13 16.6173 17.4375 16.2398 17.4375H8.75727V17.44Z" fill="#FF6D73"/>
<path d="M12.5 12.425C14.1458 12.425 15.48 11.0908 15.48 9.44497C15.48 7.79916 14.1458 6.46497 12.5 6.46497C10.8542 6.46497 9.52002 7.79916 9.52002 9.44497C9.52002 11.0908 10.8542 12.425 12.5 12.425Z" fill="#FF3038"/>
</g>
<defs>
<clipPath id="clip0_97_648">
<rect width="25" height="25" fill="white"/>
</clipPath>
</defs>
</svg>
