<svg width="25" height="25" viewBox="0 0 25 25" fill="none" xmlns="http://www.w3.org/2000/svg">
<g clip-path="url(#clip0_97_647)">
<path d="M12.4998 24.75C24.3723 24.75 23.4948 17.475 23.4948 17.475C23.4948 16.58 18.5723 15.855 12.4998 15.855C6.42729 15.855 1.50479 16.5825 1.50479 17.475C1.50479 17.475 0.627288 24.75 12.4998 24.75Z" fill="#E79331"/>
<path d="M12.5 15.855C6.42748 15.855 1.50498 16.58 1.50498 17.475C1.50498 17.475 1.36498 18.6475 1.96248 20.05C3.72498 21.5125 6.87498 22.7475 12.5 22.7475C18.125 22.7475 21.2775 21.5125 23.0375 20.0525C23.6375 18.65 23.495 17.4775 23.495 17.4775C23.495 16.5825 18.5725 15.855 12.5 15.855Z" fill="#FFB048"/>
<path d="M22.6674 16.3224C17.8824 15.1574 2.24736 16.1324 2.24736 16.1324C2.24736 16.1324 -0.0801373 16.8699 0.289863 17.7974C0.659863 18.7249 3.39986 18.7024 3.39986 18.7024C3.39986 18.7024 3.11736 19.6299 5.05236 19.1299C5.05236 19.1299 6.35736 21.2174 9.49736 19.3349C10.2099 20.3349 12.2024 22.4499 14.8974 19.6149C15.5499 20.0024 16.5199 20.2974 17.9699 20.2724C21.9499 20.1999 19.7974 19.2249 19.7974 19.2249C19.7974 19.2249 22.7774 20.0574 22.4949 18.7499C22.4949 18.7499 27.4524 17.4874 22.6674 16.3224Z" fill="#699A00"/>
<path d="M22.5297 14.835C21.7997 13.735 17.6397 12.885 12.5572 12.8425C12.5572 12.8425 12.5572 12.8425 12.5572 12.84C12.5372 12.84 12.5197 12.84 12.4997 12.84C12.4797 12.84 12.4597 12.84 12.4422 12.84C12.4422 12.84 12.4422 12.84 12.4422 12.8425C7.35973 12.885 3.19973 13.735 2.46973 14.835V16.6625C2.49973 16.71 2.53473 16.755 2.57723 16.8C2.57973 16.8025 2.57973 16.805 2.57973 16.805H2.58223C3.55723 17.84 7.58473 18.6225 12.4622 18.66C12.4747 18.66 12.4897 18.66 12.5022 18.66C12.5147 18.66 12.5297 18.66 12.5422 18.66C17.4197 18.62 21.4472 17.84 22.4222 16.805H22.4247C22.4247 16.805 22.4272 16.8025 22.4272 16.8C22.4697 16.755 22.5047 16.7075 22.5347 16.6625V14.835H22.5297Z" fill="#FF6B5C"/>
<path d="M22.6801 10.255C21.9376 9.13748 17.7176 8.27498 12.5576 8.23248C12.5576 8.23248 12.5576 8.23248 12.5576 8.22998C12.5376 8.22998 12.5176 8.22998 12.4976 8.22998C12.4776 8.22998 12.4576 8.22998 12.4376 8.22998C12.4376 8.22998 12.4376 8.22998 12.4376 8.23248C7.27758 8.27498 3.05758 9.13748 2.31508 10.255C0.885081 12.01 1.79758 14.0275 2.23258 14.7825C2.26758 14.885 2.33008 14.9875 2.42258 15.085C2.42258 15.0875 2.42508 15.09 2.42508 15.09H2.42758C3.41758 16.14 7.50508 16.9325 12.4526 16.9725C12.4651 16.9725 12.4801 16.9725 12.4926 16.9725C12.5051 16.9725 12.5201 16.9725 12.5326 16.9725C17.4826 16.9325 21.5701 16.14 22.5576 15.09H22.5601C22.5601 15.09 22.5626 15.0875 22.5626 15.085C22.6551 14.985 22.7176 14.885 22.7526 14.7825C23.1976 14.0275 24.1101 12.01 22.6801 10.255Z" fill="#A76A62"/>
<path d="M12.5449 14.6875C12.5299 14.6875 12.5149 14.6875 12.4999 14.6875C12.4849 14.6875 12.4699 14.6875 12.4549 14.6875C7.30738 14.645 2.99738 13.8475 1.56738 12.76C1.64988 13.635 2.00738 14.385 2.23738 14.7825C2.27238 14.885 2.33488 14.9875 2.42738 15.085C2.42738 15.0875 2.42988 15.09 2.42988 15.09H2.43238C3.42238 16.14 7.50988 16.9325 12.4574 16.9725C12.4699 16.9725 12.4849 16.9725 12.4974 16.9725C12.5099 16.9725 12.5249 16.9725 12.5374 16.9725C17.4874 16.9325 21.5749 16.14 22.5624 15.09H22.5649C22.5649 15.09 22.5674 15.0875 22.5674 15.085C22.6599 14.985 22.7224 14.885 22.7574 14.7825C22.9874 14.385 23.3449 13.635 23.4274 12.76C22.0024 13.8475 17.6924 14.645 12.5449 14.6875Z" fill="#89493E"/>
<path d="M1.9523 9.90002C1.9523 9.90002 0.494802 12.0325 1.5873 14.38C1.7123 14.645 2.0648 14.63 2.1798 14.36C2.6423 13.2675 3.9298 11.205 7.0323 11.205L1.9523 9.90002Z" fill="#FFDE46"/>
<path d="M23.0473 9.90002C23.0473 9.90002 24.5048 12.0325 23.4123 14.38C23.2873 14.645 22.9348 14.63 22.8198 14.36C22.3573 13.2675 21.0698 11.205 17.9673 11.205L23.0473 9.90002Z" fill="#FFDE46"/>
<path d="M12.5 10.2524L6.14502 10.7774C6.14502 10.7774 9.00752 12.4624 11.8925 17.0274C12.185 17.4899 12.8125 17.4899 13.105 17.0274C15.99 12.4624 18.8525 10.7774 18.8525 10.7774L12.5 10.2524Z" fill="#FFDE46"/>
<path d="M12.4998 0.25C0.00732613 0.25 0.929827 9.74 0.929827 9.74C0.929827 10.7875 6.10983 11.6375 12.4998 11.6375C18.8898 11.6375 24.0698 10.7875 24.0698 9.74C24.0698 9.74 24.9923 0.25 12.4998 0.25Z" fill="#E79331"/>
<path d="M12.4999 0.25C7.51742 0.25 4.66992 1.76 3.04492 3.575C3.04492 5.54 7.27742 7.135 12.4999 7.135C17.7224 7.135 21.9549 5.54 21.9549 3.575C20.3299 1.76 17.4824 0.25 12.4999 0.25Z" fill="#FFB048"/>
<path d="M5.96484 5.86169C6.27119 5.32912 6.18287 4.70373 5.76758 4.46484C5.35229 4.22596 4.76729 4.46405 4.46094 4.99662C4.15459 5.5292 4.24291 6.15459 4.6582 6.39347C5.07349 6.63236 5.65849 6.39427 5.96484 5.86169Z" fill="#FFE4AD"/>
<path d="M9.53753 9.77804C9.93432 9.50705 9.97632 8.87789 9.63135 8.37279C9.28637 7.86768 8.68506 7.6779 8.28827 7.94889C7.89148 8.21989 7.84948 8.84904 8.19445 9.35415C8.53943 9.85925 9.14074 10.049 9.53753 9.77804Z" fill="#FFE4AD"/>
<path d="M11.497 3.31271C11.8938 3.04171 11.9358 2.41256 11.5908 1.90746C11.2458 1.40235 10.6445 1.21257 10.2477 1.48356C9.85096 1.75456 9.80895 2.38371 10.1539 2.88882C10.4989 3.39392 11.1002 3.5837 11.497 3.31271Z" fill="#FFE4AD"/>
<path d="M13.5654 7.52011C13.9621 7.24911 14.0042 6.61996 13.6592 6.11485C13.3142 5.60975 12.7129 5.41997 12.3161 5.69096C11.9193 5.96196 11.8773 6.59111 12.2223 7.09621C12.5673 7.60132 13.1686 7.7911 13.5654 7.52011Z" fill="#FFE4AD"/>
<path d="M19.8413 8.80531C20.0487 8.22256 19.8542 7.62101 19.4067 7.46171C18.9593 7.30241 18.4283 7.64567 18.2209 8.22842C18.0134 8.81116 18.208 9.41271 18.6554 9.57201C19.1029 9.73132 19.6338 9.38805 19.8413 8.80531Z" fill="#FFE4AD"/>
<path d="M17.6753 3.48402C17.8827 2.90127 17.6882 2.29972 17.2407 2.14042C16.7932 1.98112 16.2623 2.32438 16.0548 2.90713C15.8474 3.48987 16.0419 4.09142 16.4894 4.25072C16.9369 4.41003 17.4678 4.06676 17.6753 3.48402Z" fill="#FFE4AD"/>
</g>
<defs>
<clipPath id="clip0_97_647">
<rect width="25" height="25" fill="white"/>
</clipPath>
</defs>
</svg>
