<svg width="25" height="25" viewBox="0 0 25 25" fill="none" xmlns="http://www.w3.org/2000/svg">
<g clip-path="url(#clip0_97_645)">
<path d="M12.1727 0.25C10.5302 0.25 9.2002 1.2575 9.2002 2.5025V7.27H15.1477V2.5025C15.1452 1.2575 13.8152 0.25 12.1727 0.25Z" fill="#736F27"/>
<path d="M19.6076 13.2151L19.3101 12.6326C19.0201 12.0651 18.4351 11.7051 17.7951 11.7051H5.41014C4.67014 11.7051 4.01514 12.1826 3.79014 12.8851L1.64014 19.6376" fill="#92903D"/>
<path d="M18.6725 12.6276C18.4075 12.6276 18.1475 12.6476 17.89 12.6801V12.6776L17.78 12.6926C17.765 12.6951 17.7475 12.6976 17.7325 12.7001L4.68998 14.5801C2.20748 14.9326 0.29248 17.0676 0.29248 19.6376C0.29248 22.3701 2.45248 24.6076 5.15998 24.7426V24.7501H18.6725C22.0225 24.7501 24.75 22.0301 24.75 18.6876C24.75 15.3451 22.0225 12.6276 18.6725 12.6276Z" fill="#B9BB9C"/>
<path d="M18.6727 13.9701C18.3802 13.9701 18.0952 13.9976 17.8152 14.0476L5.4177 15.8701C3.3302 15.8701 1.6377 17.5576 1.6377 19.6401C1.6377 21.7226 3.3302 23.4101 5.4177 23.4101H18.6702C21.2827 23.4101 23.4027 21.2976 23.4027 18.6901C23.4052 16.0826 21.2852 13.9701 18.6727 13.9701Z" fill="#3E3F35"/>
<path d="M5.4177 23.4076C7.50533 23.4076 9.1977 21.7197 9.1977 19.6376C9.1977 17.5554 7.50533 15.8676 5.4177 15.8676C3.33006 15.8676 1.6377 17.5554 1.6377 19.6376C1.6377 21.7197 3.33006 23.4076 5.4177 23.4076Z" fill="#767765"/>
<path d="M18.6729 23.4075C21.2866 23.4075 23.4054 21.2943 23.4054 18.6875C23.4054 16.0807 21.2866 13.9675 18.6729 13.9675C16.0592 13.9675 13.9404 16.0807 13.9404 18.6875C13.9404 21.2943 16.0592 23.4075 18.6729 23.4075Z" fill="#FF3038"/>
<path d="M18.6729 23.4075C21.2866 23.4075 23.4054 21.2943 23.4054 18.6875C23.4054 16.0807 21.2866 13.9675 18.6729 13.9675C16.0592 13.9675 13.9404 16.0807 13.9404 18.6875C13.9404 21.2943 16.0592 23.4075 18.6729 23.4075Z" fill="#767765"/>
<path d="M5.41746 22.4C6.94729 22.4 8.18746 21.1632 8.18746 19.6375C8.18746 18.1118 6.94729 16.875 5.41746 16.875C3.88763 16.875 2.64746 18.1118 2.64746 19.6375C2.64746 21.1632 3.88763 22.4 5.41746 22.4Z" fill="#60604A"/>
<path d="M5.41734 20.5875C5.94339 20.5875 6.36984 20.1622 6.36984 19.6375C6.36984 19.1128 5.94339 18.6875 5.41734 18.6875C4.89129 18.6875 4.46484 19.1128 4.46484 19.6375C4.46484 20.1622 4.89129 20.5875 5.41734 20.5875Z" fill="#B9BB9C"/>
<path d="M18.6725 22.1851C20.6082 22.1851 22.1775 20.6192 22.1775 18.6876C22.1775 16.7559 20.6082 15.1901 18.6725 15.1901C16.7367 15.1901 15.1675 16.7559 15.1675 18.6876C15.1675 20.6192 16.7367 22.1851 18.6725 22.1851Z" fill="#60604A"/>
<path d="M18.6725 20.9375C19.9179 20.9375 20.9275 19.9301 20.9275 18.6875C20.9275 17.4449 19.9179 16.4375 18.6725 16.4375C17.4271 16.4375 16.4175 17.4449 16.4175 18.6875C16.4175 19.9301 17.4271 20.9375 18.6725 20.9375Z" fill="#3E3F35"/>
<path d="M10.2999 23.1125C10.9916 23.1125 11.5524 22.5529 11.5524 21.8625C11.5524 21.1722 10.9916 20.6125 10.2999 20.6125C9.60813 20.6125 9.04736 21.1722 9.04736 21.8625C9.04736 22.5529 9.60813 23.1125 10.2999 23.1125Z" fill="#B9BB9C"/>
<path d="M13.1602 23.1125C13.852 23.1125 14.4127 22.5529 14.4127 21.8625C14.4127 21.1722 13.852 20.6125 13.1602 20.6125C12.4685 20.6125 11.9077 21.1722 11.9077 21.8625C11.9077 22.5529 12.4685 23.1125 13.1602 23.1125Z" fill="#B9BB9C"/>
<path d="M11.5524 19.6401C12.7412 19.6401 13.7049 18.6786 13.7049 17.4926C13.7049 16.3066 12.7412 15.3451 11.5524 15.3451C10.3636 15.3451 9.3999 16.3066 9.3999 17.4926C9.3999 18.6786 10.3636 19.6401 11.5524 19.6401Z" fill="#B9BB9C"/>
<path d="M11.5526 18.7326C12.2388 18.7326 12.7951 18.1774 12.7951 17.4926C12.7951 16.8077 12.2388 16.2526 11.5526 16.2526C10.8663 16.2526 10.3101 16.8077 10.3101 17.4926C10.3101 18.1774 10.8663 18.7326 11.5526 18.7326Z" fill="#60604A"/>
<path d="M18.6726 19.6951C19.2304 19.6951 19.6826 19.244 19.6826 18.6876C19.6826 18.1311 19.2304 17.6801 18.6726 17.6801C18.1148 17.6801 17.6626 18.1311 17.6626 18.6876C17.6626 19.244 18.1148 19.6951 18.6726 19.6951Z" fill="#B9BB9C"/>
<path d="M24.7501 7.98497L24.7101 7.54997L24.5851 6.15747L24.5451 5.71997L15.4126 6.36497L15.5026 7.35247L15.5901 8.33997L15.6801 9.32497L24.7501 7.98497Z" fill="#B9BB9C"/>
<path d="M19.7175 9.19251L19.655 8.50501L19.4575 6.31001L19.3975 5.62251L15.335 5.51501L15.475 7.06751L15.615 8.62252L15.755 10.1775L19.7175 9.19251Z" fill="#736F27"/>
<path d="M14.9901 4.3625L9.66013 3.77C8.36013 3.655 7.17513 4.595 6.86763 5.9875L5.93013 10.2125C5.76013 10.9725 6.28513 11.7075 6.99763 11.7075H16.0851C16.9076 11.7075 17.5476 10.92 17.4576 10.02L17.1126 6.625C16.9876 5.41 16.0976 4.4625 14.9901 4.3625Z" fill="#736F27"/>
<path d="M17.1102 6.6225C16.9877 5.4075 16.0977 4.46 14.9902 4.3625L9.66016 3.77C8.36016 3.655 7.17516 4.595 6.86766 5.9875L5.93016 10.2125C5.92016 10.255 5.91516 10.2975 5.91016 10.34H12.3602L13.1952 7.735H15.6802L16.3127 10.34H17.4577C17.4677 10.235 17.4677 10.13 17.4552 10.02L17.1102 6.6225Z" fill="#92903D"/>
<path d="M3.02 14.4675C4.54983 14.4675 5.79 13.2307 5.79 11.705C5.79 10.1793 4.54983 8.9425 3.02 8.9425C1.49017 8.9425 0.25 10.1793 0.25 11.705C0.25 13.2307 1.49017 14.4675 3.02 14.4675Z" fill="#B9BB9C"/>
<path d="M3.02006 13.66C4.10254 13.66 4.98006 12.7847 4.98006 11.705C4.98006 10.6253 4.10254 9.75 3.02006 9.75C1.93758 9.75 1.06006 10.6253 1.06006 11.705C1.06006 12.7847 1.93758 13.66 3.02006 13.66Z" fill="#767765"/>
<path d="M3.01984 13.1326C3.80961 13.1326 4.44984 12.4935 4.44984 11.7051C4.44984 10.9167 3.80961 10.2776 3.01984 10.2776C2.23008 10.2776 1.58984 10.9167 1.58984 11.7051C1.58984 12.4935 2.23008 13.1326 3.01984 13.1326Z" fill="#B9BB9C"/>
<path d="M4.16252 4.19255L3.48002 7.30755C3.38752 7.73505 3.64002 8.15255 4.04752 8.24005L5.61252 8.58005C6.02002 8.66755 6.42502 8.39505 6.51752 7.96755L7.20002 4.85255C7.29252 4.42505 7.04002 4.00755 6.63252 3.92005L5.06752 3.58005C4.66002 3.49005 4.25502 3.76505 4.16252 4.19255Z" fill="#B68061"/>
<path d="M4.54248 8.34755L5.61248 8.58005C6.01998 8.66755 6.42498 8.39505 6.51748 7.96755L7.19998 4.85255C7.21748 4.77255 7.22248 4.69505 7.21748 4.61755L5.33998 4.69755L4.54248 8.34755Z" fill="#91684F"/>
<path d="M9.2876 1.9525L15.1451 2.465C15.1176 1.2375 13.7976 0.25 12.1726 0.25C10.7801 0.25 9.6126 0.975 9.2876 1.9525Z" fill="#92903D"/>
<path d="M10.5523 7.33497L9.81482 5.83997L9.07732 7.33497L7.94482 7.04997L8.76482 8.69997H9.81482H10.8673L11.6873 7.04997L10.5523 7.33497Z" fill="#FFF5C9"/>
</g>
<defs>
<clipPath id="clip0_97_645">
<rect width="25" height="25" fill="white"/>
</clipPath>
</defs>
</svg>
