<svg width="25" height="25" viewBox="0 0 25 25" fill="none" xmlns="http://www.w3.org/2000/svg">
<g clip-path="url(#clip0_97_650)">
<path d="M24.3724 18.135L21.1049 8.6175C19.4999 0.25 12.5024 0.25 12.4999 0.25C12.4974 0.25 5.49986 0.25 3.89486 8.6175L0.627359 18.135C0.627359 18.135 -1.09514 21.7 2.82486 23.08C2.82486 23.08 7.17236 24.7475 12.4999 24.7475C17.8274 24.7475 22.1749 23.08 22.1749 23.08C26.0949 21.7025 24.3724 18.135 24.3724 18.135Z" fill="#676C97"/>
<path opacity="0.32" d="M22.175 23.0825C26.0975 21.7025 24.3725 18.1375 24.3725 18.1375L21.105 8.6175C19.5 0.25 12.5025 0.25 12.5 0.25V24.75C17.8275 24.75 22.175 23.0825 22.175 23.0825Z" fill="#292D49"/>
<path d="M21.015 19.4875C20.2425 17.3875 19.56 8.84004 19.56 8.84004C18.3725 1.35504 12.5 1.17004 12.5 1.17004C12.5 1.17004 6.62748 1.35504 5.43998 8.84004C5.43998 8.84004 4.75748 17.39 3.98498 19.4875C3.21248 21.5875 11.575 22.7325 11.575 22.7325H12.5H13.4275C13.4275 22.7325 21.7875 21.5875 21.015 19.4875Z" fill="#292D49"/>
<path d="M18.4321 7.90003C18.3121 3.98003 15.6246 2.46253 13.8071 1.88253C12.3171 1.53003 11.0346 1.93503 11.0346 1.93503C9.22457 2.55003 6.68457 4.09253 6.56707 7.89753C6.56707 7.89753 5.01707 9.63753 5.93957 11.825L7.06707 12.6125L7.54457 12.8225C7.54457 12.8225 7.22457 15.2575 10.4371 19.3575L12.4996 17.7075L14.5621 19.3575C17.7746 15.26 17.4546 12.825 17.4546 12.825L17.9321 12.615L19.0596 11.8275C19.9821 9.64003 18.4321 7.90003 18.4321 7.90003Z" fill="#959ABC"/>
<path d="M16.0295 14.855C15.4845 8.40247 12.977 7.88497 12.4995 7.84497C12.022 7.88497 9.51451 8.40497 8.96951 14.8575C8.96951 14.8575 8.76701 16.0475 9.65701 17.905C9.65701 17.905 10.8595 20.91 10.8745 22.205C10.8745 22.205 10.727 24.1875 12.502 24.1875C14.277 24.1875 14.1295 22.205 14.1295 22.205C14.142 20.91 15.347 17.905 15.347 17.905C16.232 16.045 16.0295 14.855 16.0295 14.855Z" fill="white"/>
<path d="M13.6974 10.3076C13.3649 9.89007 12.8774 9.62507 12.4999 9.63007C12.1249 9.62507 11.6349 9.89007 11.3024 10.3076C10.8974 10.8176 10.8774 11.3601 11.2599 11.5201C11.5874 11.6576 12.1024 11.4676 12.4999 11.0926C12.8949 11.4701 13.4124 11.6576 13.7399 11.5201C14.1224 11.3601 14.1024 10.8176 13.6974 10.3076Z" fill="#292D49"/>
<path d="M10.0646 16.97C10.0646 16.97 11.0371 20.555 11.3371 22.325C11.3371 22.325 11.3421 23.5625 12.5021 23.6725V12.93C12.4996 12.93 8.73209 12.7725 10.0646 16.97Z" fill="#292D49"/>
<path d="M12.4995 12.93V23.67C13.6595 23.56 13.6645 22.3225 13.6645 22.3225C13.962 20.5525 14.937 16.9675 14.937 16.9675C16.267 12.7725 12.4995 12.93 12.4995 12.93Z" fill="#292D49"/>
<path d="M14.4473 3.67757C14.4473 3.67757 16.0598 3.38007 16.2998 5.22757C16.5373 7.07507 16.8873 7.89007 18.1698 8.64007C19.4523 9.39007 20.0948 10.2451 19.5073 11.5626C18.9198 12.8801 17.1423 12.9901 15.4373 11.8651C13.7323 10.7401 12.9998 7.48257 12.9998 5.63507C12.9973 5.63507 12.9423 3.94507 14.4473 3.67757Z" fill="white"/>
<path d="M17.7901 9.10002C17.7901 9.10002 16.06 8.11002 15.2725 5.54252L15.25 5.54502C15.16 5.21252 14.81 4.96252 14.3925 4.96252C13.9075 4.96252 13.5125 5.30002 13.5125 5.71502C13.5125 5.71502 13.2925 10.295 17.16 10.72L17.1675 10.7075C17.2225 10.715 17.2775 10.72 17.335 10.72C17.89 10.72 18.34 10.335 18.34 9.86252C18.3375 9.53002 18.1151 9.24002 17.7901 9.10002Z" fill="#292D49"/>
<path d="M10.5522 3.67757C10.5522 3.67757 8.93973 3.38007 8.69973 5.22757C8.45973 7.07507 8.11223 7.89007 6.82973 8.64007C5.54723 9.39007 4.90473 10.2451 5.49223 11.5626C6.07973 12.8801 7.85723 12.9901 9.56223 11.8651C11.2672 10.7401 11.9997 7.48257 11.9997 5.63507C12.0022 5.63507 12.0572 3.94507 10.5522 3.67757Z" fill="white"/>
<path d="M7.20967 9.10002C7.20967 9.10002 8.93967 8.11002 9.72717 5.54252L9.74967 5.54502C9.83967 5.21252 10.1897 4.96252 10.6072 4.96252C11.0922 4.96252 11.4872 5.30002 11.4872 5.71502C11.4872 5.71502 11.7072 10.295 7.83967 10.72L7.83217 10.7075C7.77717 10.715 7.72217 10.72 7.66467 10.72C7.10967 10.72 6.65967 10.335 6.65967 9.86252C6.66217 9.53002 6.88467 9.24002 7.20967 9.10002Z" fill="#292D49"/>
</g>
<defs>
<clipPath id="clip0_97_650">
<rect width="25" height="25" fill="white"/>
</clipPath>
</defs>
</svg>
