<svg width="20" height="21" viewBox="0 0 20 21" fill="none" xmlns="http://www.w3.org/2000/svg">
<path d="M6.875 17.1785C7.22018 17.1785 7.5 16.8986 7.5 16.5535C7.5 16.2083 7.22018 15.9285 6.875 15.9285C6.52982 15.9285 6.25 16.2083 6.25 16.5535C6.25 16.8986 6.52982 17.1785 6.875 17.1785Z" stroke="#FC6A03" stroke-width="1.25" stroke-linecap="round" stroke-linejoin="round"/>
<path d="M15.625 17.1785C15.9702 17.1785 16.25 16.8986 16.25 16.5535C16.25 16.2083 15.9702 15.9285 15.625 15.9285C15.2798 15.9285 15 16.2083 15 16.5535C15 16.8986 15.2798 17.1785 15.625 17.1785Z" stroke="#FC6A03" stroke-width="1.25" stroke-linecap="round" stroke-linejoin="round"/>
<path d="M1.875 3.42847H4.375L6.25 14.0535H16.25" stroke="#FC6A03" stroke-width="1.25" stroke-linecap="round" stroke-linejoin="round"/>
<path d="M6.25 11.5535H15.9938C16.066 11.5535 16.1361 11.5285 16.192 11.4827C16.2479 11.4369 16.2862 11.3732 16.3004 11.3023L17.4254 5.6773C17.4345 5.63194 17.4334 5.58513 17.4222 5.54025C17.4109 5.49537 17.3899 5.45354 17.3606 5.41778C17.3312 5.38201 17.2943 5.35321 17.2525 5.33344C17.2107 5.31367 17.165 5.30343 17.1187 5.30347H5" stroke="#FC6A03" stroke-width="1.25" stroke-linecap="round" stroke-linejoin="round"/>
</svg>
