<svg width="25" height="25" viewBox="0 0 25 25" fill="none" xmlns="http://www.w3.org/2000/svg">
<g clip-path="url(#clip0_97_646)">
<path d="M24.45 22.65L23.025 21.9V20.15C23.025 19.675 22.775 19.225 22.325 18.925L19.8 17.425V9.95L22.975 7.75C23.4 7.375 23.675 6.85 23.725 6.3L23.65 0.6C23.65 0.275 23.35 0 22.975 0H21.4C21.05 0 20.775 0.225 20.725 0.525L20.375 3.075H19.75H18.075H17.45L17.125 0.525C17.075 0.225 16.8 0 16.45 0H15.025C14.675 0 14.4 0.225 14.35 0.525L14 3.075H13.625H11.6H10.975L10.65 0.525C10.6 0.225 10.325 0 9.975 0H8.55C8.2 0 7.925 0.225 7.875 0.525L7.525 3.075H6.9H5.25H4.625L4.275 0.525C4.225 0.225 3.95 0 3.6 0H2.025C1.65 0 1.375 0.275 1.35 0.6L1.3 6.3C1.35 6.85 1.6 7.35 2.05 7.75L5.125 9.975V17.45L2.675 18.975C2.225 19.25 1.975 19.725 1.975 20.2V21.925L0.55 22.675C0.2 22.8 0 23.125 0 23.45V24.325C0 24.7 0.35 25 0.775 25H10.475H14.525H24.225C24.65 25 25 24.7 25 24.325V23.45C25 23.125 24.8 22.8 24.45 22.65Z" fill="#DDC2A9"/>
<path d="M2.0248 7.75005L5.0998 9.95005H19.7998L22.9748 7.75005C23.3998 7.37505 23.6748 6.85005 23.7248 6.30005H1.2998C1.3498 6.85005 1.5998 7.35005 2.0248 7.75005Z" fill="#AB8C73"/>
<path d="M23.0251 20C22.9751 19.575 22.7251 19.175 22.3501 18.925L19.8251 17.425H5.1251L2.6751 18.9501C2.2751 19.2001 2.0501 19.575 1.9751 20H23.0251Z" fill="#F7DDBA"/>
<path d="M24.975 23.3C24.925 23.025 24.725 22.8 24.45 22.675L23.025 21.925H1.95L0.525 22.675C0.25 22.8 0.05 23.05 0 23.3H24.975Z" fill="#F7DDBA"/>
<path d="M15.4 17.425L15.5 14.05C15.55 12.375 14.175 11 12.5 11C10.8 11 9.425 12.4 9.5 14.075L9.7 17.425H15.4Z" fill="#AB8C73"/>
<path d="M14.325 17.425L14.4 14.575C14.425 13.45 13.575 12.5 12.525 12.5C11.45 12.5 10.6 13.45 10.65 14.6L10.75 17.425H14.325Z" fill="#8A583B"/>
</g>
<defs>
<clipPath id="clip0_97_646">
<rect width="25" height="25" fill="white"/>
</clipPath>
</defs>
</svg>
