<svg width="50" height="50" viewBox="0 0 50 50" fill="none" xmlns="http://www.w3.org/2000/svg">
<g clip-path="url(#clip0_519_1916)">
<path d="M44.8813 14.8001C44.9117 15.2411 44.9117 15.6818 44.9117 16.1267C44.9117 29.6814 34.5926 45.3142 15.7242 45.3142V45.3064C10.15 45.3142 4.69138 43.7176 0 40.7071C0.810547 40.8048 1.625 40.8536 2.44141 40.8556C7.06137 40.8593 11.5485 39.3098 15.1816 36.456C13.041 36.4155 10.9665 35.7072 9.24821 34.4299C7.52992 33.1526 6.25372 31.3703 5.59805 29.3321C7.13594 29.629 8.72031 29.5677 10.2297 29.1552C5.44375 28.1884 2.00078 23.9837 2.00078 19.1005V18.9704C3.42746 19.7652 5.02424 20.2056 6.65664 20.2544C2.14844 17.2419 0.759766 11.2454 3.48164 6.55754C6.05699 9.72655 9.27015 12.3184 12.9124 14.1647C16.5547 16.011 20.5446 17.0705 24.623 17.2743C24.2165 15.5239 24.2767 13.6973 24.7975 11.9774C25.3184 10.2575 26.2817 8.70441 27.591 7.47355C31.7227 3.58957 38.2207 3.78879 42.1043 7.91848C44.4016 7.46486 46.6047 6.62256 48.6187 5.42785C47.8529 7.80312 46.2504 9.8194 44.1094 11.1017C46.1428 10.8619 48.1286 10.3174 50 9.48644C48.6234 11.548 46.89 13.3474 44.8813 14.8001Z" fill="#1D9BF0"/>
</g>
<defs>
<clipPath id="clip0_519_1916">
<rect width="50" height="50" fill="white"/>
</clipPath>
</defs>
</svg>
