<svg width="25" height="25" viewBox="0 0 25 25" fill="none" xmlns="http://www.w3.org/2000/svg">
<g clip-path="url(#clip0_89_246)">
<path d="M23.5751 21.55L22.0001 23.1L16.7251 18.225L18.7001 16.275L23.5751 21.55Z" fill="#FD2C2C"/>
<path d="M0.97477 1.05002L3.04977 5.60002C3.32477 6.17502 3.67477 6.70002 4.14977 7.15002L16.2998 18.825L18.3248 17.85L19.2998 15.825L7.59977 3.65002C7.14977 3.20002 6.62477 2.82502 6.04977 2.55002L1.49977 0.500017C1.14977 0.350017 0.79977 0.700017 0.97477 1.05002Z" fill="#86A9BC"/>
<path d="M18.8748 16.625L19.2498 15.825L7.5998 3.64998C7.14981 3.19998 6.6248 2.82498 6.0498 2.54998L1.4998 0.499978C1.3248 0.424978 1.1498 0.474978 1.0498 0.574978L17.8748 17.4L18.8748 16.625Z" fill="#BDD1DD"/>
<path d="M23.375 24.55C24.2725 24.55 25 23.8225 25 22.925C25 22.0276 24.2725 21.3 23.375 21.3C22.4775 21.3 21.75 22.0276 21.75 22.925C21.75 23.8225 22.4775 24.55 23.375 24.55Z" fill="#F2AE56"/>
<path d="M20.6252 13.6L17.3502 16.875L14.0752 20.15C14.3252 20.6 14.9002 20.725 15.3252 20.425L18.5002 18.05L20.8752 14.85C21.2002 14.45 21.0752 13.85 20.6252 13.6Z" fill="#F2AE56"/>
<path d="M1.4248 21.55L2.9998 23.1L8.2748 18.225L6.2998 16.275L1.4248 21.55Z" fill="#FD2C2C"/>
<path d="M24.0251 1.05002L21.9501 5.60002C21.6751 6.17502 21.3251 6.70002 20.8501 7.15002L8.7251 18.8L6.7001 17.825L5.7251 15.8L17.4001 3.65002C17.8501 3.20002 18.3751 2.82502 18.9501 2.55002L23.5001 0.500017C23.8501 0.350017 24.2001 0.700017 24.0251 1.05002Z" fill="#D9E4EC"/>
<path d="M6.125 16.625L5.75 15.825L17.425 3.67498C17.875 3.22498 18.4 2.84998 18.975 2.57498L23.5 0.499978C23.675 0.424978 23.85 0.474978 23.95 0.574978L7.15 17.4L6.125 16.625Z" fill="#FFFCF2"/>
<path d="M1.625 24.5499C2.52246 24.5499 3.25 23.8224 3.25 22.9249C3.25 22.0275 2.52246 21.2999 1.625 21.2999C0.727537 21.2999 0 22.0275 0 22.9249C0 23.8224 0.727537 24.5499 1.625 24.5499Z" fill="#FDD47A"/>
<path d="M4.3748 13.6L7.6498 16.875L10.9248 20.15C10.6748 20.6 10.0998 20.725 9.6748 20.425L6.4998 18.05L4.1248 14.85C3.7998 14.45 3.9248 13.85 4.3748 13.6Z" fill="#FDD47A"/>
</g>
<defs>
<clipPath id="clip0_89_246">
<rect width="25" height="25" fill="white"/>
</clipPath>
</defs>
</svg>
