<svg width="32" height="31" viewBox="0 0 32 31" fill="none" xmlns="http://www.w3.org/2000/svg">
<path d="M7 19.375C7 13.7441 14.75 9.38477 13 2.90625C17.125 2.90625 25 8.71875 25 19.375C25 21.6874 24.0518 23.905 22.364 25.5401C20.6761 27.1752 18.3869 28.0937 16 28.0937C13.6131 28.0937 11.3239 27.1752 9.63604 25.5401C7.94821 23.905 7 21.6874 7 19.375Z" stroke="#7E2BFD" stroke-width="2.15" stroke-linecap="round" stroke-linejoin="round"/>
<path d="M20 22.2812C20 25.7754 18 27.125 16 27.125C14 27.125 12 25.7754 12 22.2812C12 18.7871 14.5 17.0742 14 14.5312C16.625 14.5312 20 18.7871 20 22.2812Z" stroke="#7E2BFD" stroke-width="2.15" stroke-linecap="round" stroke-linejoin="round"/>
</svg>
