<svg width="20" height="21" viewBox="0 0 20 21" fill="none" xmlns="http://www.w3.org/2000/svg">
<path d="M5.19521 17.491C4.95538 17.4905 4.71979 17.4277 4.51162 17.3086C4.04287 17.0429 3.75146 16.5273 3.75146 15.9675V4.63941C3.75146 4.07808 4.04287 3.56402 4.51162 3.2984C4.72475 3.17591 4.96686 3.11292 5.21266 3.11601C5.45846 3.11911 5.69891 3.18817 5.90889 3.31597L15.5905 9.11129C15.7923 9.23781 15.9586 9.4135 16.0739 9.62189C16.1892 9.83028 16.2497 10.0645 16.2497 10.3027C16.2497 10.5409 16.1892 10.7751 16.0739 10.9835C15.9586 11.1919 15.7923 11.3676 15.5905 11.4941L5.90732 17.291C5.69244 17.4209 5.44631 17.49 5.19521 17.491Z" fill="#FC6A03"/>
</svg>
